<svg width="264" height="33" viewBox="0 0 264 33" fill="none" xmlns="http://www.w3.org/2000/svg">
<path d="M61.5104 0L64.817 1.31883L91.4517 30.5089C92.3315 31.476 91.6337 33 90.299 33H31.4478L61.5104 0Z" fill="#2044A0"/>
<path d="M29.7188 32.9707H41.1553L64.9385 6.88721C67.3957 4.22025 65.4238 0 61.7229 0C60.4791 0 59.3264 0.498224 58.5073 1.40675L29.7188 32.9707Z" fill="#C7DAFF"/>
<path d="M30.8712 0L34.1778 1.31883L63.0574 32.9707H0.808594L30.8712 0Z" fill="#3366FF"/>
<path d="M0.778798 32.9707H10.5166L34.2997 6.88721C36.7266 4.22025 34.7548 0 31.0538 0C29.81 0 28.6573 0.498224 27.8382 1.40675L0.202422 31.7398C-0.252613 32.2087 0.111413 32.9707 0.778798 32.9707Z" fill="#C7DAFF"/>
<path d="M128.778 13.6028L123.56 24.0655H120.162L114.884 13.5735L113.337 26.4101H108.908L111.547 5.71912H115.218L121.831 19.2884L128.383 5.71912H132.115L134.723 26.4101H130.325L128.778 13.6028Z" fill="#28293D"/>
<path d="M152.531 26.4101H138.819V5.71912H152.258V9.41184H143.157V14.3355H151.135V18.0868H143.157V22.7173H152.561V26.4101H152.531Z" fill="#28293D"/>
<path d="M164.907 9.41184V26.4101H160.6V9.41184H154.684V5.71912H170.823V9.41184H164.907Z" fill="#28293D"/>
<path d="M172.583 20.4021H176.89C176.921 21.8674 178.407 23.0983 180.409 23.0983C182.381 23.0983 183.625 22.0726 183.625 20.6072C183.625 19.4936 182.715 18.6436 180.925 18.1161L178.316 17.3834C173.614 16.1818 172.795 13.4269 172.795 11.5806C172.795 7.85856 176.101 5.33813 180.197 5.33813C184.262 5.33813 187.356 7.71202 187.356 11.6392H183.048C183.048 10.1738 181.987 9.03085 180.136 9.03085C178.437 9.03085 177.194 10.0859 177.194 11.4927C177.194 12.0202 177.345 13.046 179.59 13.6907L181.987 14.3648C185.232 15.244 188.054 16.8559 188.054 20.4021C188.054 24.4758 184.413 26.7618 180.379 26.7618C175.737 26.7618 172.583 24.0362 172.583 20.4021Z" fill="#28293D"/>
<path d="M205.588 26.4101H191.876V5.71912H205.315V9.41184H196.214V14.3355H204.192V18.0868H196.214V22.7173H205.618V26.4101H205.588Z" fill="#28293D"/>
<path d="M225.73 26.4101H221.848L214.082 13.4269V26.4101H209.774V5.71912H213.778L221.423 18.5557V5.71912H225.73V26.4101Z" fill="#28293D"/>
<path d="M234.497 21.4571L232.799 26.4101H228.188L236.166 5.71912H240.837L248.785 26.4101H244.235L242.506 21.4571H234.497ZM238.471 10.0566L235.771 17.823H241.202L238.471 10.0566Z" fill="#28293D"/>
<path d="M257.704 9.41184V26.4101H253.396V9.41184H247.481V5.71912H263.62V9.41184H257.704Z" fill="#28293D"/>
</svg>
